<svg width="28" height="28" viewBox="0 0 28 28" fill="none" xmlns="http://www.w3.org/2000/svg">
<path d="M17.6813 0.5625C15.9725 0.5625 14.5938 0.5625 13.51 0.70875C12.385 0.85875 11.4375 1.18375 10.685 1.935C10.03 2.59125 9.69752 3.3975 9.52377 4.345C9.35502 5.26625 9.32252 6.3925 9.31502 7.745C9.31369 7.99364 9.41119 8.23262 9.58607 8.40938C9.76095 8.58613 9.99888 8.68617 10.2475 8.6875C10.4962 8.68883 10.7351 8.59133 10.9119 8.41645C11.0886 8.24157 11.1887 8.00364 11.19 7.755C11.1975 6.38875 11.2325 5.42 11.3675 4.68375C11.4988 3.97625 11.7075 3.565 12.0113 3.26125C12.3575 2.915 12.8438 2.69 13.7613 2.56625C14.705 2.44 15.9563 2.4375 17.75 2.4375H19C20.795 2.4375 22.0463 2.44 22.99 2.56625C23.9075 2.69 24.3925 2.91625 24.74 3.26125C25.085 3.6075 25.31 4.0925 25.4338 5.01125C25.5613 5.95375 25.5625 7.20625 25.5625 9V19C25.5625 20.7938 25.5613 22.045 25.4338 22.99C25.31 23.9075 25.085 24.3925 24.7388 24.7388C24.3925 25.085 23.9075 25.31 22.99 25.4338C22.0463 25.56 20.795 25.5625 19 25.5625H17.75C15.9563 25.5625 14.705 25.56 13.76 25.4338C12.8438 25.31 12.3575 25.0837 12.0113 24.7388C11.7075 24.4338 11.4988 24.0237 11.3675 23.3162C11.2325 22.58 11.1975 21.6112 11.19 20.245C11.1894 20.1219 11.1645 20.0001 11.1167 19.8866C11.069 19.7731 10.9994 19.6701 10.9119 19.5836C10.8244 19.497 10.7207 19.4285 10.6067 19.3819C10.4927 19.3354 10.3706 19.3118 10.2475 19.3125C10.1244 19.3132 10.0026 19.3381 9.88913 19.3858C9.77564 19.4335 9.67266 19.5031 9.58607 19.5906C9.49948 19.6781 9.43097 19.7819 9.38447 19.8959C9.33796 20.0098 9.31436 20.1319 9.31502 20.255C9.32252 21.6075 9.35502 22.7338 9.52377 23.655C9.69877 24.6025 10.03 25.4088 10.6863 26.065C11.4375 26.8175 12.3863 27.14 13.5113 27.2925C14.5938 27.4375 15.9725 27.4375 17.6813 27.4375H19.0688C20.7788 27.4375 22.1563 27.4375 23.24 27.2925C24.365 27.14 25.3125 26.8175 26.065 26.065C26.8175 25.3125 27.14 24.365 27.2925 23.24C27.4375 22.1562 27.4375 20.7775 27.4375 19.0688V8.93125C27.4375 7.2225 27.4375 5.84375 27.2925 4.76C27.1413 3.635 26.8175 2.6875 26.065 1.935C25.3125 1.1825 24.365 0.86 23.24 0.70875C22.1563 0.5625 20.7775 0.5625 19.0688 0.5625H17.6813Z" fill="#A3A3A3"/>
<path d="M17.75 13.0625C17.9987 13.0625 18.2371 13.1613 18.4129 13.3371C18.5888 13.5129 18.6875 13.7514 18.6875 14C18.6875 14.2486 18.5888 14.4871 18.4129 14.6629C18.2371 14.8387 17.9987 14.9375 17.75 14.9375H4.03378L6.48503 17.0375C6.67399 17.1993 6.79095 17.4295 6.81017 17.6775C6.8294 17.9255 6.74931 18.171 6.58753 18.36C6.42574 18.549 6.19552 18.6659 5.9475 18.6851C5.69949 18.7044 5.45399 18.6243 5.26503 18.4625L0.890026 14.7125C0.787107 14.6245 0.704478 14.5152 0.647822 14.3922C0.591166 14.2692 0.561829 14.1354 0.561829 14C0.561829 13.8646 0.591166 13.7308 0.647822 13.6078C0.704478 13.4848 0.787107 13.3755 0.890026 13.2875L5.26503 9.5375C5.35859 9.45739 5.46702 9.3965 5.58412 9.35829C5.70122 9.32009 5.8247 9.30533 5.9475 9.31485C6.07031 9.32436 6.19004 9.35798 6.29985 9.41377C6.40967 9.46956 6.50742 9.54643 6.58753 9.64C6.66763 9.73356 6.72852 9.84199 6.76673 9.95909C6.80493 10.0762 6.81969 10.1997 6.81017 10.3225C6.80066 10.4453 6.76704 10.565 6.71125 10.6748C6.65547 10.7846 6.57859 10.8824 6.48503 10.9625L4.03503 13.0625H17.75Z" fill="#A3A3A3"/>
</svg>
