<svg width="82" height="85" viewBox="0 0 82 85" fill="none" xmlns="http://www.w3.org/2000/svg">
<path d="M41 36.8232L0 60.4978L41.006 84.1664L82 60.4978L41 36.8232Z" fill="#37474F"/>
<path d="M6.07316 20.1639L6.06717 60.4978L41 80.6497V40.3278L6.07316 20.1639Z" fill="#D39294"/>
<path d="M41 40.3278V80.6497L75.9268 60.4978V20.1639L41 40.3278Z" fill="#D39294"/>
<path opacity="0.25" d="M41 40.3278V80.6497L75.9268 60.4978V20.1639L41 40.3278Z" fill="white"/>
<path opacity="0.4" d="M41 40.3278L41.5461 79.6535L61.71 68.7014L41 80.6497V40.3278Z" fill="white"/>
<path d="M41.0002 0L6.07341 20.1639L41.0002 40.3279L75.9271 20.1639L41.0002 0Z" fill="#D39294"/>
<path opacity="0.4" d="M41.0002 0L6.07341 20.1639L41.0002 40.3279L75.9271 20.1639L41.0002 0Z" fill="white"/>
<path opacity="0.1" d="M6.07318 20.1639L40.886 39.2956L75.9268 20.1639L41 40.3278L6.07318 20.1639Z" fill="white"/>
<path d="M21.0401 11.5223L55.9669 31.6862L60.9599 28.8056L26.0331 8.64169L21.0401 11.5223Z" fill="#D39294"/>
<path d="M60.9599 28.8056V35.1489L60.3538 34.8008L59.7297 35.887L59.0995 35.515L58.4754 36.6072L57.8513 36.2411L57.2212 37.3213L56.5971 36.9672L55.9669 38.0475V31.6922L60.9599 28.8056Z" fill="#D39294"/>
<path opacity="0.25" d="M60.9599 28.8056V35.1489L60.3538 34.8008L59.7297 35.887L59.0995 35.515L58.4754 36.6072L57.8513 36.2411L57.2212 37.3213L56.5971 36.9672L55.9669 38.0475V31.6922L60.9599 28.8056Z" fill="black"/>
<path d="M52.7983 45.963C53.1463 45.3628 53.5124 44.7627 53.9085 44.2166C54.3046 43.6427 54.7355 43.0936 55.1987 42.5723C55.6647 42.0464 56.1681 41.5551 56.705 41.102C57.2474 40.6498 57.83 40.2481 58.4454 39.9018C59.159 39.4593 59.9519 39.1597 60.7798 39.0196C61.3973 38.912 62.033 39.02 62.5802 39.3257C63.1111 39.6592 63.5163 40.1594 63.7324 40.7479C64.0281 41.546 64.1667 42.3937 64.1405 43.2444C64.1478 44.1497 64.045 45.0525 63.8344 45.933C63.6391 46.7169 63.3802 47.4835 63.0603 48.2254C62.7632 48.8963 62.4203 49.5459 62.0341 50.1698L60.9779 51.8501C60.6418 52.3722 60.3778 52.8703 60.1077 53.3324C59.884 53.7502 59.7319 54.2026 59.6576 54.6707L59.2976 57.6112L56.591 59.1715L56.321 56.237C56.253 55.6669 56.3124 55.0889 56.495 54.5446C56.6825 53.9682 56.9257 53.4115 57.2212 52.8823C57.5272 52.3302 57.8693 51.7721 58.2474 51.202C58.6254 50.6319 58.9795 50.0558 59.3096 49.4616C59.6366 48.8738 59.9136 48.2595 60.1377 47.6253C60.3613 46.9911 60.475 46.3234 60.4738 45.6509C60.4738 44.8107 60.2577 44.2646 59.8257 44.0186C59.3936 43.7725 58.8115 43.8565 58.0973 44.2706C57.6138 44.5436 57.1679 44.8785 56.7711 45.2668C56.4424 45.594 56.1338 45.9407 55.8469 46.305C55.5888 46.6351 55.3728 46.9051 55.1928 47.1932C55.0592 47.4015 54.8834 47.5794 54.6766 47.7153C54.3106 47.9253 54.0405 47.8713 53.8605 47.5593L52.7983 45.963ZM55.4808 64.8907C55.4841 64.453 55.5426 64.0175 55.6548 63.5944C55.7732 63.157 55.9403 62.7343 56.153 62.3341C56.3569 61.9489 56.6046 61.5885 56.8911 61.2599C57.1534 60.9518 57.4659 60.6901 57.8153 60.4858C58.0905 60.3151 58.4041 60.216 58.7274 60.1977C58.9936 60.1844 59.2563 60.2628 59.4716 60.4198C59.7008 60.5943 59.874 60.8321 59.9697 61.1039C60.0969 61.4537 60.158 61.824 60.1497 62.1961C60.1485 62.6383 60.0879 63.0783 59.9697 63.5044C59.8502 63.9376 59.6832 64.3562 59.4716 64.7526C59.2691 65.1383 59.0191 65.4972 58.7274 65.8208C58.4665 66.1207 58.1584 66.3761 57.8153 66.577C57.5371 66.7536 57.2197 66.8588 56.8911 66.883C56.6273 66.9002 56.3659 66.8237 56.153 66.667C55.9251 66.4936 55.7522 66.2581 55.6548 65.9889C55.531 65.6363 55.4721 65.2642 55.4808 64.8907Z" fill="white"/>
<path d="M17.8715 39.4277C18.221 39.2269 18.5939 39.0697 18.9817 38.9596C19.4013 38.8418 19.8364 38.7892 20.2719 38.8036C20.7821 38.8237 21.2871 38.9146 21.7722 39.0736C22.3799 39.2672 22.9637 39.5289 23.5126 39.8538C24.3699 40.3435 25.1555 40.9494 25.847 41.6541C26.544 42.3659 27.1488 43.1622 27.6474 44.0246C28.1412 44.8929 28.5281 45.8178 28.7996 46.7791C29.0695 47.7442 29.2068 48.7416 29.2077 49.7437C29.2344 50.5338 29.1289 51.3228 28.8956 52.0782C28.7342 52.5916 28.4709 53.0671 28.1215 53.4764C27.8387 53.7994 27.4911 54.059 27.1013 54.2386C26.7292 54.4066 26.3751 54.5627 26.0391 54.6947C25.7311 54.8185 25.4406 54.9819 25.1749 55.1808C25.0492 55.2799 24.9447 55.4032 24.8674 55.5434C24.7901 55.6836 24.7416 55.8378 24.7248 55.9969L24.3648 58.5234L21.6582 56.9571L21.3882 53.7105C21.3019 53.2065 21.3602 52.6884 21.5562 52.2162C21.7254 51.8837 21.9776 51.6005 22.2883 51.394C22.6094 51.1878 22.9539 51.0206 23.3145 50.8959C23.6847 50.7663 24.0391 50.5952 24.3707 50.3858C24.7111 50.1602 24.9962 49.8607 25.2049 49.5097C25.4546 49.0161 25.5705 48.4657 25.541 47.9134C25.5474 47.0683 25.3211 46.2378 24.8869 45.5129C24.4783 44.7895 23.8836 44.1887 23.1645 43.7726C22.7587 43.5139 22.3093 43.3309 21.8382 43.2325C21.5318 43.1885 21.2206 43.1885 20.9141 43.2325C20.6917 43.2614 20.4713 43.3034 20.2539 43.3585C20.1676 43.3828 20.0772 43.389 19.9883 43.3766C19.8995 43.3642 19.8142 43.3335 19.7378 43.2865C19.3428 43.0302 19.0532 42.6404 18.9217 42.1882L17.8715 39.4277ZM20.548 61.446C20.5398 61.0739 20.6008 60.7036 20.728 60.3538C20.8238 60.082 20.9969 59.8442 21.2261 59.6697C21.4373 59.5135 21.6959 59.4351 21.9583 59.4476C22.2863 59.4607 22.6051 59.56 22.8825 59.7357C23.2281 59.9427 23.5382 60.2041 23.8006 60.5098C24.0896 60.8377 24.3394 61.1982 24.5448 61.584C24.758 61.9832 24.9232 62.4062 25.0369 62.8443C25.1539 63.2665 25.2144 63.7024 25.2169 64.1405C25.2268 64.5147 25.1657 64.8873 25.0369 65.2387C24.9438 65.5102 24.7726 65.7482 24.5448 65.9229C24.3286 66.0767 24.065 66.149 23.8006 66.1269C23.4754 66.1044 23.1603 66.0035 22.8825 65.8329C22.5384 65.626 22.2269 65.3691 21.9583 65.0707C21.6723 64.7453 21.4265 64.3866 21.2261 64.0025C21.0146 63.6061 20.8475 63.1874 20.728 62.7543C20.6098 62.3282 20.5492 61.8882 20.548 61.446Z" fill="white"/>
</svg>
