<svg width="28" height="28" viewBox="0 0 28 28" fill="none" xmlns="http://www.w3.org/2000/svg">
<path d="M25.25 20.25V9H7.75V20.25H25.25ZM25.25 2.75C25.913 2.75 26.5489 3.01339 27.0178 3.48223C27.4866 3.95107 27.75 4.58696 27.75 5.25V20.25C27.75 20.913 27.4866 21.5489 27.0178 22.0178C26.5489 22.4866 25.913 22.75 25.25 22.75H7.75C7.08696 22.75 6.45107 22.4866 5.98223 22.0178C5.51339 21.5489 5.25 20.913 5.25 20.25V5.25C5.25 4.58696 5.51339 3.95107 5.98223 3.48223C6.45107 3.01339 7.08696 2.75 7.75 2.75H9V0.25H11.5V2.75H21.5V0.25H24V2.75H25.25ZM20.9125 12.825L15.3625 18.375L12.0125 15.025L13.3375 13.7L15.3625 15.725L19.5875 11.5L20.9125 12.825ZM2.75 25.25H20.25V27.75H2.75C2.08696 27.75 1.45107 27.4866 0.982233 27.0178C0.513392 26.5489 0.25 25.913 0.25 25.25V10.25H2.75V25.25Z" fill="#A3A3A3"/>
</svg>
